<svg width="1659.6" height="1651" version="1.1" viewBox="0 0 439.1 436.82" xmlns="http://www.w3.org/2000/svg">
 <defs>
  <filter id="b" x="-.072014" y="-.11141" width="1.144" height="1.2228" color-interpolation-filters="sRGB">
   <feGaussianBlur stdDeviation="10.079802"/>
  </filter>
  <filter id="a" x="-.075134" y="-.072613" width="1.1503" height="1.1451" color-interpolation-filters="sRGB">
   <feGaussianBlur stdDeviation="7.7798825"/>
  </filter>
 </defs>
 <path transform="translate(-38.779 -31.926)" d="m193.51 137.43a20.542 20.542 0 0 0-20.542 20.542 20.542 20.542 0 0 0 20.542 20.542 20.542 20.542 0 0 0 20.542-20.542 20.542 20.542 0 0 0-20.542-20.542zm226.98 7.6915c-16.818 0.0033-95.561-0.00149-112.38 5.1e-4 -9.61 0-18.75 0.98865-27.418 2.9672-8.668 1.8844-16.299 4.9934-22.895 9.3275-6.6897 4.334-11.966 9.94-15.829 16.818-3.9572 6.972-5.9355 15.452-5.9355 25.439 0 7.538 1.4603 14.227 4.3811 20.069 2.8266 5.841 6.6895 11.165 11.589 15.97 4.9 4.8055 10.6 9.1872 17.101 13.144 6.501 3.9569 13.379 7.7253 20.634 11.306 7.067 3.4861 13.332 6.6894 18.797 9.6102 5.3706 2.9208 9.9404 5.9362 13.709 9.0454 3.7688 3.1092 6.6425 6.5484 8.6211 10.317 1.8844 3.7685 2.8262 8.2439 2.8262 13.426 0 5.559-1.2719 10.27-3.8158 14.133-2.544 3.863-5.8415 7.0194-9.8929 9.4691-4.0511 2.4497-8.6682 4.1927-13.85 5.2291-5.182 1.1307-10.364 1.6965-15.546 1.6965h-83.73l-0.00104-132.91c0-7.899-26.708-7.899-26.708 0v132.91h-84.886c-7.1606 0-7.1606 21.482 0 21.482h192.92c8.762 0 17.383-1.084 25.863-3.251 8.385-2.1671 15.875-5.4646 22.471-9.8929 6.5951-4.429 11.919-10.082 15.97-16.96 4.0514-6.784 6.0776-14.792 6.0776-24.026 0-7.537-1.2724-14.133-3.8163-19.786-2.6381-5.559-6.2183-10.553-10.741-14.981-4.522-4.428-9.846-8.4795-15.97-12.154-6.124-3.6742-12.72-7.3016-19.786-10.882-6.69-3.3919-12.908-6.6426-18.656-9.7518-5.8414-3.015-10.883-6.2188-15.123-9.6107-4.2399-3.298-7.5374-6.9722-9.8929-11.024-2.4498-4.051-3.6747-8.8092-3.6747-14.274 0-10.176 3.6271-17.997 10.882-23.461 7.161-5.3706 18.043-8.0553 32.647-8.0553h116.05c7.1135 0 7.1135-21.34 0-21.34z" fill="#022cff" filter="url(#b)"/>
 <circle transform="translate(-38.779 -31.926)" cx="258.35" cy="250.49" r="190.81" fill="none" filter="url(#a)" stroke="#002aff" stroke-dasharray="80, 40" stroke-dashoffset="40" stroke-linecap="round" stroke-linejoin="bevel" stroke-miterlimit="5.4" stroke-width="20" style="paint-order:normal"/>
 <path transform="translate(-38.779 -31.926)" d="m193.51 137.43a20.542 20.542 0 0 0-20.542 20.542 20.542 20.542 0 0 0 20.542 20.542 20.542 20.542 0 0 0 20.542-20.542 20.542 20.542 0 0 0-20.542-20.542zm226.98 7.6915c-16.818 0.0033-95.561-0.00149-112.38 5.1e-4 -9.61 0-18.75 0.98865-27.418 2.9672-8.668 1.8844-16.299 4.9934-22.895 9.3275-6.6897 4.334-11.966 9.94-15.829 16.818-3.9572 6.972-5.9355 15.452-5.9355 25.439 0 7.538 1.4603 14.227 4.3811 20.069 2.8266 5.841 6.6895 11.165 11.589 15.97 4.9 4.8055 10.6 9.1872 17.101 13.144 6.501 3.9569 13.379 7.7253 20.634 11.306 7.067 3.4861 13.332 6.6894 18.797 9.6102 5.3706 2.9208 9.9404 5.9362 13.709 9.0454 3.7688 3.1092 6.6425 6.5484 8.6211 10.317 1.8844 3.7685 2.8262 8.2439 2.8262 13.426 0 5.559-1.2719 10.27-3.8158 14.133-2.544 3.863-5.8415 7.0194-9.8929 9.4691-4.0511 2.4497-8.6682 4.1927-13.85 5.2291-5.182 1.1307-10.364 1.6965-15.546 1.6965h-83.73l-0.00104-132.91c0-7.899-26.708-7.899-26.708 0v132.91h-84.886c-7.1606 0-7.1606 21.482 0 21.482h192.92c8.762 0 17.383-1.084 25.863-3.251 8.385-2.1671 15.875-5.4646 22.471-9.8929 6.5951-4.429 11.919-10.082 15.97-16.96 4.0514-6.784 6.0776-14.792 6.0776-24.026 0-7.537-1.2724-14.133-3.8163-19.786-2.6381-5.559-6.2183-10.553-10.741-14.981-4.522-4.428-9.846-8.4795-15.97-12.154-6.124-3.6742-12.72-7.3016-19.786-10.882-6.69-3.3919-12.908-6.6426-18.656-9.7518-5.8414-3.015-10.883-6.2188-15.123-9.6107-4.2399-3.298-7.5374-6.9722-9.8929-11.024-2.4498-4.051-3.6747-8.8092-3.6747-14.274 0-10.176 3.6271-17.997 10.882-23.461 7.161-5.3706 18.043-8.0553 32.647-8.0553h116.05c7.1135 0 7.1135-21.34 0-21.34z" fill="#fff"/>
 <circle transform="translate(-38.779 -31.926)" cx="258.35" cy="250.49" r="190.81" fill="none" stroke="#fff" stroke-dasharray="80, 40" stroke-dashoffset="40" stroke-linecap="round" stroke-linejoin="bevel" stroke-miterlimit="5.4" stroke-width="20" style="paint-order:normal"/>
</svg>
