<?xml version="1.0" encoding="UTF-8"?>
<!-- Created with Inkscape (http://www.inkscape.org/) -->
<svg width="1659.6" height="1651" version="1.1" viewBox="0 0 439.1 436.82" xmlns="http://www.w3.org/2000/svg">
 <defs>
  <filter id="filter124067" x="-.20263" y="-.43973" width="1.4053" height="1.8795" color-interpolation-filters="sRGB">
   <feGaussianBlur stdDeviation="30.20599"/>
  </filter>
  <filter id="filter124071" x="-.20316" y="-.43595" width="1.4063" height="1.8719" color-interpolation-filters="sRGB">
   <feGaussianBlur stdDeviation="30.20599"/>
  </filter>
  <filter id="filter124075" x="-.29361" y="-.22988" width="1.5872" height="1.4598" color-interpolation-filters="sRGB">
   <feGaussianBlur stdDeviation="30.20599"/>
  </filter>
  <filter id="filter124079" x="-.8279" y="-.19644" width="2.6558" height="1.3929" color-interpolation-filters="sRGB">
   <feGaussianBlur stdDeviation="30.20599"/>
  </filter>
  <filter id="filter124083" x="-.29229" y="-.23024" width="1.5846" height="1.4605" color-interpolation-filters="sRGB">
   <feGaussianBlur stdDeviation="30.20599"/>
  </filter>
  <filter id="filter124087" x="-.20329" y="-.44325" width="1.4066" height="1.8865" color-interpolation-filters="sRGB">
   <feGaussianBlur stdDeviation="30.20599"/>
  </filter>
  <filter id="filter124091" x="-.20259" y="-.44495" width="1.4052" height="1.8899" color-interpolation-filters="sRGB">
   <feGaussianBlur stdDeviation="30.20599"/>
  </filter>
  <filter id="filter124095" x="-.29057" y="-.23048" width="1.5811" height="1.461" color-interpolation-filters="sRGB">
   <feGaussianBlur stdDeviation="30.20599"/>
  </filter>
  <filter id="filter124099" x="-.82851" y="-.19492" width="2.657" height="1.3898" color-interpolation-filters="sRGB">
   <feGaussianBlur stdDeviation="30.20599"/>
  </filter>
  <filter id="filter124103" x="-.29089" y="-.2312" width="1.5818" height="1.4624" color-interpolation-filters="sRGB">
   <feGaussianBlur stdDeviation="30.20599"/>
  </filter>
  <filter id="filter124107" x="-.76115" y="-.12014" width="2.5223" height="1.2403" color-interpolation-filters="sRGB">
   <feGaussianBlur stdDeviation="30.20599"/>
  </filter>
  <filter id="filter124111" x="-.48357" y="-.48056" width="1.9671" height="1.9611" color-interpolation-filters="sRGB">
   <feGaussianBlur stdDeviation="30.20599"/>
  </filter>
  <filter id="filter124115" x="-.14489" y="-.091945" width="1.2898" height="1.1839" color-interpolation-filters="sRGB">
   <feGaussianBlur stdDeviation="30.20599"/>
  </filter>
 </defs>
 <g transform="translate(-38.779 -31.926)">
  <g fill="#00f">
   <path transform="scale(.26458)" d="m1091.7 1335.5c-106.23-16.401-175.01-70.083-192.86-150.51-5.3983-24.327-5.4799-69.163-.16699-91.702 9.0327-38.319 39.171-81.728 77.945-112.27 30.889-24.329 53.326-37.665 131.18-77.969 92.942-48.116 118.31-65.369 136.58-92.901 19.314-29.097 23.3-75.382 9.1523-106.25-13.282-28.982-43.724-51.978-85.402-64.512-19.306-5.8059-25.259-6.1041-151.08-7.5661-125.92-1.4632-131.13-1.7244-134.81-6.7626-12.466-17.062-11.483-55.453 1.7594-68.695 4.9543-4.9543 9.9335-5.1903 109.51-5.1903 114.2 0 145.62 2.0565 188.04 12.308 34.157 8.2546 80.304 29.971 103.2 48.567 45.026 36.567 68.519 85.581 68.416 142.73-.096 53.074-15.151 89.878-52.257 127.75-31.166 31.808-56.439 47.938-159.59 101.86-98.367 51.415-126.88 73.051-145.13 110.13-7.6728 15.586-9.0296 21.431-9.971 42.955-2.9753 68.027 35.185 109.13 113.05 121.77 9.3096 1.511 69.667 2.6982 137.75 2.7096 129.93.021 124.84-.4857 132.16 13.177 4.6482 8.6852 6.108 30.952 2.8347 43.239-6.134 23.025 4.0167 21.423-133.87 21.13-89.886-.191-128.69-1.2476-146.44-3.9869z" filter="url(#filter124115)" style="paint-order:normal"/>
   <path transform="scale(.26458)" d="m695.94 1333.7-11.968-6.035-.68263-287.56-.68262-287.56 5.5647-5.1843c13.535-12.61 61.799-15.053 80.588-4.0793l9.0911 5.3095v579.06l-11.968 6.035c-9.636 4.8591-16.45 6.0351-34.971 6.0351s-25.335-1.176-34.971-6.0351z" filter="url(#filter124107)" style="paint-order:normal"/>
   <path transform="scale(.26458)" d="m718.42 671.69c-15.591-2.9365-30.096-10.978-41.531-23.025-16.271-17.143-19.695-26.159-19.695-51.86 0-25.423 2.888-33.075 19.369-51.317 13.415-14.849 27.97-21.65 49.662-23.208 37.859-2.7176 68.811 19.996 78.434 57.559 11.431 44.621-18.15 85.55-67.043 92.764-4.4257.65295-13.063.24232-19.195-.91249z" filter="url(#filter124111)" style="paint-order:normal"/>
   <path transform="scale(.26458)" d="m1304.3 344.95c-76.856-40.185-147.4-63.5-228.42-75.494-19.009-2.8143-37.4-6.9757-40.867-9.2475-14.988-9.8208-20.563-29.491-12.922-45.594 6.4331-13.557 17.892-20.131 35.111-20.144 33.718-.0245 122.25 19.999 178.65 40.408 37.858 13.699 114.46 51.095 126.73 61.872 15.068 13.23 17.07 31.006 5.4839 48.689-4.2599 6.5014-21.312 15.32-29.623 15.32-2.1493 0-17.514-7.1144-34.144-15.81z" filter="url(#filter124071)" style="paint-order:normal"/>
   <path transform="scale(.26458)" d="m1624.2 690.37c-11.531-4.6006-16.241-10.888-30.879-41.223-18.041-37.385-44.295-80.599-68.666-113.02-21.625-28.771-64.322-76.828-79.031-88.953-14.004-11.543-19.928-21.677-19.937-34.102-.016-22.113 17.578-37.947 39.428-35.484 14.467 1.6307 30.418 14.853 69.003 57.199 49.832 54.689 91.532 115.87 123.95 181.86 17.145 34.901 18.578 47.153 7.1085 60.783-11.59 13.774-26.826 18.586-40.974 12.941z" filter="url(#filter124075)" style="paint-order:normal"/>
   <path transform="scale(.26458)" d="m1664.5 1127.4c-5.0836-3.4545-11.615-10.342-14.514-15.306-5.2593-9.0051-5.2577-9.1043.7271-45.578 13.287-80.974 13.406-162.52.3484-237.66-2.8121-16.183-4.414-32.918-3.5599-37.188 2.1446-10.723 17.443-25.29 28.795-27.42 12.058-2.2622 30.644 6.4004 37.07 17.278 5.8988 9.9858 14.271 58.758 18.308 106.65 5.2942 62.809-.1446 152.37-12.616 207.74-3.0636 13.603-6.0764 19.724-13.022 26.456-12.33 11.951-28.472 13.904-41.537 5.0257z" filter="url(#filter124079)" style="paint-order:normal"/>
   <path transform="scale(.26458)" d="m1442.4 1515.1c-16.182-7.9775-24.596-31.949-16.514-47.05 1.6222-3.031 16.417-18.944 32.877-35.363 51.809-51.679 96.852-113.56 129.02-177.25 9.5904-18.99 20.054-37.312 23.251-40.716 20.625-21.954 59.078-6.3454 59.762 24.258.4709 21.074-44.144 102.58-88.119 160.99-37.962 50.42-90.661 105.9-110.61 116.45-8.0867 4.2761-19.336 3.7781-29.664-1.3134z" filter="url(#filter124083)" style="paint-order:normal"/>
   <path transform="scale(.26458)" d="m1030.3 1693.6c-18.404-14.476-20.01-40.009-3.471-55.166 5.2386-4.8008 13.41-9.2223 18.369-9.94 106.07-15.348 162.63-32.118 241.82-71.695 26.342-13.166 45.679-21.211 50.963-21.205 25.202.03 42.103 30.177 30.018 53.546-6.5182 12.605-49.072 35.993-110.02 60.466-55.041 22.102-106.7 36.392-163.94 45.348-38.121 5.9647-54.894 5.6083-63.746-1.3544z" filter="url(#filter124087)" style="paint-order:normal"/>
   <path transform="scale(.26458)" d="m851.51 1693.9c-58.095-9.7992-119.17-27.951-176.55-52.469-39.156-16.731-82.959-41.074-89.376-49.67-7.6335-10.224-8.9482-24.297-3.3686-36.055 11.19-23.582 34.59-26.025 67.614-7.0598 59.929 34.416 145.95 63.003 226.35 75.226 41.349 6.2858 49.23 9.9536 56.447 26.269 4.6234 10.452 4.9832 13.785 2.414 22.36-1.6606 5.5424-7.2708 13.81-12.467 18.373-8.494 7.4578-11.132 8.2702-26.119 8.045-9.1689-.1378-29.391-2.3962-44.939-5.0186z" filter="url(#filter124091)" style="paint-order:normal"/>
   <path transform="scale(.26458)" d="m485.05 1516.7c-22.71-4.8824-94.809-83.898-142.4-156.06-27.256-41.33-62.357-109.21-62.357-120.58 0-20.039 16.808-37.104 36.527-37.085 17.268.017 27.016 8.1603 37.824 31.599 32.572 70.636 82.068 140.87 140.41 199.25 36.244 36.263 39.685 43.462 30.263 63.317-7.0691 14.897-23.915 23.082-40.271 19.565z" filter="url(#filter124095)" style="paint-order:normal"/>
   <path transform="scale(.26458)" d="m251.59 1125.3c-12.269-7.4807-16.14-16.909-22.204-54.075-8.4396-51.73-11.673-101.08-9.8205-149.88 1.7272-45.499 9.5883-108.72 16.565-133.21 8.7072-30.57 40.138-39.396 61.371-17.234 10.126 10.569 11.054 22.786 4.4764 58.951-13.196 72.556-13.119 158.1.21314 235.94 5.6173 32.795 5.6527 34.264 1.0596 43.943-9.1366 19.254-33.551 26.613-51.66 15.571z" filter="url(#filter124099)" style="paint-order:normal"/>
   <path transform="scale(.26458)" d="m302.08 683.55c-11.763-5.9811-19.079-18.26-19.092-32.041-.0119-13.035 19.157-53.528 46.75-98.752 45.898-75.227 132.27-172.69 158.24-178.54 18.116-4.0858 39.275 9.3188 43.246 27.396 3.4739 15.817-.99367 23.132-34.633 56.712-54.892 54.793-98.203 114.11-132.29 181.16-10.486 20.63-21.25 38.167-25.228 41.101-9.867 7.2774-25.972 8.5676-36.993 2.9636z" filter="url(#filter124103)" style="paint-order:normal"/>
   <path transform="scale(.26458)" d="m602.72 352.74c-9.1427-4.1495-12.659-7.8125-17.068-17.779-4.7183-10.667-5.1043-14.049-2.5692-22.51 4.2072-14.043 12.338-21.103 42.397-36.816 53.541-27.988 104.07-47.322 163.39-62.511 44.718-11.452 111.29-22.154 121.76-19.573 32.289 7.966 39.343 51.834 10.714 66.638-4.2546 2.2001-21.381 5.8851-38.059 8.1888-80.588 11.132-157.32 35.993-232.05 75.185-15.229 7.9865-29.782 14.494-32.34 14.462s-9.8336-2.4107-16.167-5.2852z" filter="url(#filter124067)" style="paint-order:normal"/>
  </g>
  <circle cx="258.35" cy="250.49" r="190.81" fill="none" stroke="#fff" stroke-dasharray="80, 40" stroke-dashoffset="40" stroke-linecap="round" stroke-linejoin="bevel" stroke-miterlimit="5.4" stroke-width="20" style="paint-order:normal"/>
  <g fill="#fff">
   <path d="m206.86 349.23c1e-5 3.9495-6.6776 5.924-13.355 5.924-6.6769 0-13.354-1.9745-13.354-5.924v-149.05c0-7.899 26.708-7.899 26.708 0z" stroke-dasharray="87.6097, 43.8049" stroke-dashoffset="43.805" stroke-linecap="round" stroke-linejoin="bevel" stroke-miterlimit="5.4" stroke-width="21.902"/>
   <path d="m358.57 355.15c7.1135 0 7.1135-21.34 0-21.34h-54.13c-14.604 0-25.486-2.6851-32.647-8.0557-7.2549-5.4648-10.882-13.285-10.882-23.461 0-5.4648 1.2248-10.223 3.6746-14.274 2.3555-4.0514 5.6532-7.726 9.8931-11.024 4.2399-3.3919 9.2806-6.5954 15.122-9.6104 5.7474-3.1092 11.966-6.3598 18.656-9.7517 7.0665-3.5804 13.662-7.2078 19.786-10.882s11.448-7.726 15.97-12.154c4.5226-4.4283 8.1029-9.422 10.741-14.981 2.5439-5.6532 3.8162-12.249 3.8162-19.786 0-9.2335-2.0261-17.242-6.0775-24.026-4.0514-6.878-9.3749-12.531-15.97-16.96-6.5954-4.4283-14.086-7.726-22.471-9.8931-8.4798-2.167-17.101-3.2508-25.863-3.2508h-52.151c-7.1606 0-7.1606 21.482 0 21.482h54.553c5.1821 0 10.364.56574 15.546 1.6964 5.1821 1.0364 9.7989 2.7795 13.85 5.2292 4.0514 2.4497 7.3491 5.6061 9.8931 9.4691 2.5439 3.863 3.8159 8.574 3.8159 14.133 0 5.1821-.94219 9.6575-2.8266 13.426-1.9786 3.7688-4.8523 7.2078-8.6211 10.317s-8.3384 6.1243-13.709 9.0451c-5.4648 2.9208-11.73 6.1243-18.797 9.6104-7.2549 3.5804-14.133 7.3491-20.634 11.306-6.5012 3.9572-12.201 8.3385-17.101 13.144-4.8994 4.8052-8.7624 10.129-11.589 15.97-2.9208 5.8416-4.3813 12.531-4.3813 20.069 0 9.9873 1.9787 18.467 5.9359 25.439 3.863 6.878 9.1393 12.484 15.829 16.818 6.5954 4.3341 14.227 7.4434 22.895 9.3278 8.6682 1.9786 17.808 2.9674 27.418 2.9674h50.455z" stroke-dasharray="87.0813, 43.5407" stroke-dashoffset="43.541" stroke-linecap="round" stroke-linejoin="bevel" stroke-miterlimit="5.4" stroke-width="21.77"/>
   <circle cx="193.51" cy="157.97" r="20.542" style="paint-order:normal"/>
  </g>
 </g>
</svg>
